<svg xmlns="http://www.w3.org/2000/svg" viewBox="0 0 512 512" role="img" aria-label="CommunityHub">
  <defs>
    <linearGradient id="g" x1="0" y1="0" x2="1" y2="1">
      <stop offset="0" stop-color="#7c3aed"/>
      <stop offset="1" stop-color="#2563eb"/>
    </linearGradient>
  </defs>
  <rect width="512" height="512" rx="128" fill="#111827"/>
  <path d="M118 270c0-76 62-138 138-138s138 62 138 138-62 138-138 138-138-62-138-138Z" fill="url(#g)" opacity="0.95"/>
  <path d="M256 168c-56.9 0-103 46.1-103 103s46.1 103 103 103 103-46.1 103-103-46.1-103-103-103Zm0 46c31.5 0 57 25.5 57 57s-25.5 57-57 57-57-25.5-57-57 25.5-57 57-57Z" fill="#f3f4f6"/>
  <path d="M256 208l16.5 33.5L306 258l-33.5 16.5L256 308l-16.5-33.5L206 258l33.5-16.5L256 208Z" fill="#111827" opacity="0.85"/>
</svg>

